<?xml version="1.0" encoding="UTF-8"?>
<svg id="Layer_1" data-name="Layer 1" xmlns="http://www.w3.org/2000/svg" viewBox="0 0 1024 1024">
  <defs>
    <style>
      .cls-1 {
        fill: #b63331;
      }

      .cls-2 {
        fill: #090909;
      }

      .cls-3 {
        fill: #451a24;
      }
    </style>
  </defs>
  <path class="cls-1" d="M941.49,542.26c-7.14,99.85-48.88,197.67-125.23,274-12.47,12.47-25.52,24.02-39.05,34.63-85.35,67.02-190.13,97.3-293.05,90.85-101.19-6.32-200.57-48.15-277.9-125.49-12.13-12.12-23.38-24.79-33.76-37.92-68.11-86.17-98.65-192.33-91.58-296.42,6.8-100.41,48.57-198.89,125.34-275.65,12.23-12.23,25.02-23.58,38.28-34.03,87.18-68.78,194.77-99.13,299.96-91.03h0c99.06,7.6,195.99,49.28,271.75,125.05,12.58,12.58,24.21,25.74,34.91,39.39,67.67,86.36,97.77,192.57,90.32,296.6Z"/>
  <path class="cls-2" d="M851.17,261.66c-10.7-13.65-22.33-26.81-34.91-39.39-75.76-75.77-172.69-117.45-271.75-125.05h0c-105.19-8.1-212.78,22.24-299.96,91.03-13.26,10.45-26.04,21.79-38.28,34.03-76.77,76.76-118.54,175.24-125.34,275.65-7.06,104.09,23.47,210.25,91.58,296.42,10.38,13.14,21.63,25.8,33.76,37.92,77.32,77.33,176.71,119.16,277.9,125.49,102.92,6.45,207.7-23.84,293.05-90.85,13.53-10.61,26.58-22.16,39.05-34.63,76.35-76.34,118.09-174.16,125.23-274,7.46-104.03-22.65-210.24-90.32-296.6ZM420.13,420.13c105.32-100.82,279.06-81.82,378.11,25.56,79.92,83.77,90.92,212.8,32.65,307.73-12.6,17.79-26.86,34.76-42.79,50.69-38.09,38.09-82.14,66.67-129.17,85.75-17.01,6.9-31.51-13.99-19.2-27.6.18-.19.35-.39.52-.58,116.15-126.13,110.76-344.94-17.83-459.5-13.14-11.42-30.35,6.1-19,19,100.82,105.33,97.82,295.06-9.56,394.11-82.81,79-209.84,90.66-304.45,34.63-19.36-13.32-37.8-28.6-55-45.8-38.06-38.06-66.63-82.07-85.71-129.06-6.9-16.99,14.05-31.54,27.6-19.19.53.48,1.05.96,1.58,1.43,126.13,116.15,328.94,94.76,443.5-33.83,11.42-13.14-6.1-30.35-19-19-105.32,100.82-279.06,113.83-378.11,6.44-87.98-92.23-92.44-239.27-12.92-335.33l1.81-2.16c.7-.83,1.41-1.66,2.14-2.49,6.06-7.01,12.44-13.86,19.1-20.52,2.14-2.14,4.3-4.25,6.48-6.32,37.41-35.74,80.22-62.63,125.75-80.65,17.17-6.8,31.56,14.26,18.99,27.79-1.13,1.22-2.26,2.45-3.37,3.69-116.15,126.13-110.76,312.94,17.83,427.5,13.14,11.42,30.35-6.1,19-19-100.82-105.33-97.82-263.06,9.56-362.11,100.18-95.58,265.07-92.59,358.99,9.56,2.36,2.62,4.93,4.93,7.67,6.94,35.39,37.28,62.02,79.87,79.9,125.15,6.69,16.94-14.29,31.32-27.68,18.97-.96-.88-1.92-1.76-2.89-2.63-126.13-116.15-328.94-126.76-443.5,1.83-11.42,13.14,6.1,30.35,19,19ZM577.63,528.3c0,36.65-29.71,66.36-66.36,66.36s-66.36-29.71-66.36-66.36,29.71-66.36,66.36-66.36,66.36,29.71,66.36,66.36Z"/>
  <g>
    <path class="cls-3" d="M1007.94,511.27c-2.63-67.83-25.49-131.03-62.56-183.42,0,0,0-.02-.02-.02-23.72-56.1-57.68-106.47-100.93-149.72-43.26-43.26-93.64-77.22-149.75-100.95-43.4-18.36-88.79-29.96-135.49-34.65-9.4-16.58-27.57-27.41-47.92-26.45-65.59,2.55-126.84,24-178.17,58.92-1.75.71-3.49,1.43-5.24,2.17-56.11,23.73-106.5,57.7-149.75,100.95-43.26,43.26-77.22,93.64-100.95,149.75-12.29,29.06-21.56,59.01-27.74,89.65-3.16,15.63-5.52,31.44-7.06,47.4-16.5,9.42-27.25,27.55-26.29,47.83,2.59,66.55,24.64,128.64,60.47,180.44.2.5.41,1,.62,1.51,23.73,56.11,57.7,106.5,100.95,149.75,43.26,43.26,93.64,77.22,149.75,100.95,43.62,18.45,89.25,30.07,136.2,34.72,9.15,17.36,27.77,28.82,48.67,27.84,68.8-2.67,132.84-26.15,185.66-64.16,54.62-23.63,103.73-57.05,146.03-99.35,43.26-43.26,77.22-93.64,100.95-149.75,18.25-43.13,29.81-88.25,34.56-134.66,17.47-9.12,28.99-27.78,28-48.75ZM847.53,385.94c-.96-.88-1.92-1.76-2.89-2.63-126.13-116.15-328.94-110.76-443.5,17.83-11.42,13.14,6.1,30.35,19,19,105.33-100.82,279.06-97.82,378.11,9.56,79.92,83.77,90.92,212.8,32.65,307.73-12.6,17.79-26.86,34.76-42.79,50.69-38.09,38.09-82.14,66.67-129.17,85.75-17.01,6.9-31.51-13.99-19.2-27.6.18-.19.35-.39.52-.58,116.15-126.13,110.76-328.94-17.83-443.51-13.14-11.42-30.35,6.1-19,19,100.82,105.33,97.82,279.06-9.56,378.11-82.81,79-209.84,90.66-304.45,34.63-19.36-13.32-37.8-28.6-55-45.8-38.06-38.06-66.63-82.07-85.71-129.06-6.9-16.99,14.05-31.54,27.6-19.19.53.48,1.05.96,1.58,1.43,126.13,116.15,328.94,110.76,443.5-17.83,11.42-13.14-6.1-30.35-19-19-105.32,100.82-279.06,97.83-378.11-9.56-87.98-92.23-92.44-239.27-12.92-335.33l1.81-2.16c.7-.83,1.41-1.66,2.14-2.49,6.06-7.01,12.44-13.86,19.1-20.52,2.14-2.14,4.3-4.25,6.48-6.32,37.41-35.74,80.22-62.63,125.75-80.65,17.17-6.8,31.56,14.26,18.99,27.79-1.13,1.22-2.26,2.45-3.37,3.69-116.15,126.13-110.76,328.94,17.83,443.51,13.14,11.42,30.35-6.1,19-19-100.82-105.33-97.82-279.06,9.56-378.11,100.18-95.58,265.07-92.59,358.99,9.56,2.36,2.62,4.93,4.93,7.67,6.94,35.39,37.28,62.02,79.87,79.9,125.15,6.69,16.94-14.29,31.32-27.68,18.97Z"/>
    <circle class="cls-3" cx="511.27" cy="512.3" r="66.36" transform="translate(-212.51 511.57) rotate(-45)"/>
  </g>
</svg>